<?xml version="1.0" encoding="UTF-8"?>
<svg width="32" height="32" viewBox="0 0 32 32" fill="none" xmlns="http://www.w3.org/2000/svg">
  <rect width="32" height="32" rx="6" fill="#E53E3E"/>
  <path d="M12 10C14.2091 10 16 11.7909 16 14C16 15.1 15.6 16.1 14.9 16.8C16.4 17.5 17.5 19.1 17.5 21C17.5 23.2091 15.7091 25 13.5 25H8V10H12Z" fill="white"/>
  <path d="M20 10C22.2091 10 24 11.7909 24 14C24 15.1 23.6 16.1 22.9 16.8C24.4 17.5 25.5 19.1 25.5 21C25.5 23.2091 23.7091 25 21.5 25H16V10H20Z" fill="white"/>
</svg>